<svg xmlns="http://www.w3.org/2000/svg" xmlns:xlink="http://www.w3.org/1999/xlink" width="32" height="29.5" viewBox="0 0 32 29.5">
  <defs>
    <linearGradient id="linear-gradient" y1="-0.044" x2="1" y2="1.049" gradientUnits="objectBoundingBox">
      <stop offset="0" stop-color="#08cca8"/>
      <stop offset="1" stop-color="#39b939"/>
    </linearGradient>
  </defs>
  <g id="Group_1220" data-name="Group 1220" transform="translate(0 472)">
    <path id="Path_12275" data-name="Path 12275" d="M99.171-271.789h7.454v-11.326H99.171Z" transform="translate(-92.973 -177.08)" fill="#2bf260" opacity="0.25"/>
    <path id="Path_12276" data-name="Path 12276" d="M7.438-461.937a2.5,2.5,0,0,0-2.5,2.5V-450a2.5,2.5,0,0,0,2.5,2.5h4.75a2.5,2.5,0,0,0,2.5-2.5v-9.437a2.5,2.5,0,0,0-2.5-2.5ZM12.189-450H7.438v-9.437h4.75Zm14.749-4.687a1.25,1.25,0,0,1-1.25,1.25h-7.25a1.25,1.25,0,0,1-1.25-1.25,1.25,1.25,0,0,1,1.25-1.25h7.25A1.25,1.25,0,0,1,26.938-454.687Zm0,4.75a1.25,1.25,0,0,1-1.25,1.25h-7.25a1.25,1.25,0,0,1-1.25-1.25,1.25,1.25,0,0,1,1.25-1.25h7.25A1.25,1.25,0,0,1,26.938-449.937Zm0-9.5a1.25,1.25,0,0,1-1.25,1.25h-7.25a1.25,1.25,0,0,1-1.25-1.25,1.25,1.25,0,0,1,1.25-1.25h7.25A1.25,1.25,0,0,1,26.938-459.437ZM28.25-472H3.75A3.754,3.754,0,0,0,0-468.25v20.75a5.006,5.006,0,0,0,5,5H27a5.006,5.006,0,0,0,5-5c.016.016-2.516.016-2.5,0A2.5,2.5,0,0,1,27-445H5a2.5,2.5,0,0,1-2.5-2.5v-16.937h27v11.688c0,.016,2.484.031,2.5,0v-15.5A3.754,3.754,0,0,0,28.25-472Zm-5.062,2.5a1.251,1.251,0,0,1,1.25,1.25,1.252,1.252,0,0,1-1.25,1.25,1.252,1.252,0,0,1-1.25-1.25A1.251,1.251,0,0,1,23.188-469.5Zm6.25,1.25a1.252,1.252,0,0,1-1.25,1.25,1.252,1.252,0,0,1-1.25-1.25,1.251,1.251,0,0,1,1.25-1.25A1.251,1.251,0,0,1,29.438-468.25Zm-26.937,0a1.251,1.251,0,0,1,1.25-1.25h15.9a3.729,3.729,0,0,0-.215,1.25,3.729,3.729,0,0,0,.238,1.313H2.5Z" fill="url(#linear-gradient)"/>
  </g>
</svg>
