<svg xmlns="http://www.w3.org/2000/svg" xmlns:xlink="http://www.w3.org/1999/xlink" width="32" height="27.095" viewBox="0 0 32 27.095">
  <defs>
    <linearGradient id="linear-gradient" y1="-0.06" x2="0.99" y2="1.12" gradientUnits="objectBoundingBox">
      <stop offset="0" stop-color="#08cca8"/>
      <stop offset="1" stop-color="#39b939"/>
    </linearGradient>
  </defs>
  <g id="Group_1222" data-name="Group 1222" transform="translate(0 433.521)">
    <path id="Path_12277" data-name="Path 12277" d="M347.11-390.777a4.2,4.2,0,0,1-4.211-4.172,4.2,4.2,0,0,1,4.211-4.172,4.2,4.2,0,0,1,4.211,4.172A4.2,4.2,0,0,1,347.11-390.777Z" transform="translate(-321.468 -32.249)" fill="#2bf260" opacity="0.25"/>
    <path id="Path_12278" data-name="Path 12278" d="M24.392-417.132v5.706a2.5,2.5,0,0,1-2.5,2.5H5a2.5,2.5,0,0,1-2.5-2.5v-12.827a2.5,2.5,0,0,1,2.5-2.5H15.6c-.033.033.031-2.5,0-2.5H5a5.006,5.006,0,0,0-5,5v12.827a5.006,5.006,0,0,0,5,5H21.892a5.006,5.006,0,0,0,5-5v-5.706C26.9-417.15,24.443-417.132,24.392-417.132ZM6.65-423.79c.032.018-1.627,1.916-1.648,1.88l4.632,4.061L5-413.767c-.007-.025,1.652,1.929,1.652,1.876l4.878-4.3,1.093.958a1.247,1.247,0,0,0,.824.31,1.248,1.248,0,0,0,.808-.3l1.127-.955,4.859,4.28c.009-.016,1.635-1.907,1.653-1.876l-4.585-4.038,1.785-1.513c.019.018-1.595-1.92-1.617-1.907L13.46-417.82Zm18.993-9.731a6.347,6.347,0,0,0-6.358,6.322,6.347,6.347,0,0,0,6.358,6.322A6.347,6.347,0,0,0,32-427.2,6.347,6.347,0,0,0,25.642-433.521Zm0,10.145a3.844,3.844,0,0,1-3.858-3.822,3.845,3.845,0,0,1,3.858-3.822A3.844,3.844,0,0,1,29.5-427.2,3.844,3.844,0,0,1,25.642-423.376Zm0-5.782a1.25,1.25,0,0,0-1.25,1.25v1.419a1.25,1.25,0,0,0,1.25,1.25,1.25,1.25,0,0,0,1.25-1.25v-1.419A1.25,1.25,0,0,0,25.642-429.158Z" fill="url(#linear-gradient)"/>
  </g>
</svg>
