<svg xmlns="http://www.w3.org/2000/svg" xmlns:xlink="http://www.w3.org/1999/xlink" width="31.999" height="31.182" viewBox="0 0 31.999 31.182">
  <defs>
    <linearGradient id="linear-gradient" y1="-0.029" x2="1" y2="1" gradientUnits="objectBoundingBox">
      <stop offset="0" stop-color="#08cca8"/>
      <stop offset="1" stop-color="#39b939"/>
    </linearGradient>
  </defs>
  <g id="Group_1217" data-name="Group 1217" transform="translate(0 498.944)">
    <path id="Path_12271" data-name="Path 12271" d="M153.914-319.122a6.809,6.809,0,0,1,6.805,6.805,6.809,6.809,0,0,1-6.805,6.805,6.809,6.809,0,0,1-6.805-6.805A6.808,6.808,0,0,1,153.914-319.122Z" transform="translate(-137.916 -168.584)" fill="#2bf260" opacity="0.25"/>
    <path id="Union_38" data-name="Union 38" d="M4.364,31.182A4.37,4.37,0,0,1,0,26.817V25.064a1.25,1.25,0,0,1,1.25-1.25H2.4V4.844A4.849,4.849,0,0,1,7.245,0H24.752A4.85,4.85,0,0,1,29.6,4.844V18.815c.016.028-2.488.045-2.5,0V4.844A2.346,2.346,0,0,0,24.752,2.5H7.245A2.347,2.347,0,0,0,4.9,4.844v18.97h5.186a8.253,8.253,0,1,1,11.823,0h8.838A1.251,1.251,0,0,1,32,25.064v1.753a4.37,4.37,0,0,1-4.366,4.365ZM2.5,26.817a1.867,1.867,0,0,0,1.865,1.866H27.632A1.868,1.868,0,0,0,29.5,26.817v-.5H2.5Zm7.745-8.756A5.753,5.753,0,1,0,16,12.307,5.76,5.76,0,0,0,10.245,18.061Zm4.5,2.881V18.689a1.25,1.25,0,0,1,2.5,0v2.253a1.25,1.25,0,0,1-2.5,0ZM15.058,16a1.25,1.25,0,1,1,1.4.338,1.239,1.239,0,0,1-.454.085A1.259,1.259,0,0,1,15.058,16Zm.357-9.362a1.25,1.25,0,0,1,0-2.5H16.58a1.25,1.25,0,1,1,0,2.5Z" transform="translate(0.001 -498.944)" fill="url(#linear-gradient)"/>
  </g>
</svg>
